<?xml version="1.0" encoding="UTF-8" standalone="no"?>
<svg
   xmlns:dc="http://purl.org/dc/elements/1.1/"
   xmlns:cc="http://creativecommons.org/ns#"
   xmlns:rdf="http://www.w3.org/1999/02/22-rdf-syntax-ns#"
   xmlns:svg="http://www.w3.org/2000/svg"
   xmlns="http://www.w3.org/2000/svg"
   xmlns:xlink="http://www.w3.org/1999/xlink"
   xmlns:sodipodi="http://sodipodi.sourceforge.net/DTD/sodipodi-0.dtd"
   xmlns:inkscape="http://www.inkscape.org/namespaces/inkscape"
   inkscape:version="1.0 (6e3e5246a0, 2020-05-07)"
   inkscape:export-ydpi="143.89523"
   inkscape:export-xdpi="143.89523"
   inkscape:export-filename="/home/iago/Desktop/Offline Drive/Projects/LOA/Listas OBA/1ª Lista/logo.png"
   sodipodi:docname="loa.svg"
   id="svg62"
   version="1.1"
   viewBox="0 0 95.210444 95.181338"
   height="360"
   width="360">
  <metadata
     id="metadata66">
    <rdf:RDF>
      <cc:Work
         rdf:about="">
        <dc:format>image/svg+xml</dc:format>
        <dc:type
           rdf:resource="http://purl.org/dc/dcmitype/StillImage" />
        <dc:title></dc:title>
      </cc:Work>
    </rdf:RDF>
  </metadata>
  <sodipodi:namedview
     inkscape:current-layer="svg62"
     inkscape:window-maximized="1"
     inkscape:window-y="27"
     inkscape:window-x="0"
     inkscape:cy="156.8417"
     inkscape:cx="166.26211"
     inkscape:zoom="1.1841379"
     showgrid="false"
     id="namedview64"
     inkscape:window-height="704"
     inkscape:window-width="1366"
     inkscape:pageshadow="2"
     inkscape:pageopacity="0"
     guidetolerance="10"
     gridtolerance="10"
     objecttolerance="10"
     borderopacity="1"
     bordercolor="#666666"
     pagecolor="#ffffff"
     inkscape:document-rotation="0" />
  <path
     id="path2"
     stroke-width="0.10861"
     stroke="#000000"
     fill="#ff1919"
     d="M 73.937055,56.64215 73.010716,52.056701 H 66.716234 L 65.71632,56.64215 h -6.866962 l 7.264265,-24.908154 h 7.881591 l 6.837532,24.907453 z M 69.9374,37.15329 h -0.140142 q -0.02943,0.416923 -0.206009,1.371991 -0.176579,0.955069 -1.779805,8.198313 h 4.029085 l -1.471492,-6.773768 q -0.308312,-1.493915 -0.427433,-2.795835 z" />
  <g
     id="g10"
     stroke="#515151"
     fill="#aaaaaa"
     transform="matrix(0.1082941,0,0,0.1082941,1.2960518,31.425697)">
    <path
       id="path4"
       d="m 202.312,304.868 h -22.425 v -37.44 h 8.482 v 30.6 h 13.943 z m 13.576,0 h -8.482 v -37.44 h 8.482 z m 4.306,-49.348 -8.22,8.433 h -5.987 l 6.827,-8.433 z" />
    <use
       height="100%"
       width="100%"
       y="0"
       x="0"
       id="use6"
       xlink:href="#A" />
    <path
       id="path8"
       d="m 284.37,291.97 v 12.898 h -8.482 v -37.44 h 13.287 q 14.232,0 14.232,11.932 0,5.64 -4.096,9.138 -4.07,3.473 -10.897,3.473 z m 0,-18.068 v 11.67 h 3.335 q 6.775,0 6.775,-5.9 0,-5.77 -6.775,-5.77 z m 33.086,30.966 h -8.482 v -37.44 h 8.482 z m 35.528,-1.332 q -4.123,1.984 -10.766,1.984 -8.665,0 -13.628,-5.065 -4.963,-5.065 -4.963,-13.5 0,-8.982 5.567,-14.57 5.593,-5.588 14.495,-5.588 5.514,0 9.296,1.384 v 8.12 q -3.78,-2.245 -8.613,-2.245 -5.304,0 -8.56,3.316 -3.256,3.316 -3.256,8.982 0,5.43 3.072,8.668 3.072,3.212 8.27,3.212 4.963,0 9.085,-2.402 z m 39.73,1.332 h -9.243 l -2.678,-8.33 H 367.4 l -2.652,8.33 h -9.2 l 13.707,-37.44 h 10.057 z m -13.865,-14.804 -4.044,-12.585 q -0.446,-1.4 -0.63,-3.368 h -0.2 q -0.13,1.645 -0.656,3.264 l -4.096,12.7 z" />
  </g>
  <path
     id="path12"
     stroke-width="0.10861"
     stroke="#000000"
     fill="#ffff00"
     d="m 14.233022,56.64215 c 1.387407,-6.068153 2.680217,-12.286958 0,-24.907453 h 9.194722 c -1.030044,6.345633 -1.492513,12.691267 0,19.036901 h 10.514861 c -0.531138,1.869495 -0.564772,3.594644 0,5.870552 z" />
  <circle
     style="stroke-width:0.70071"
     id="circle14"
     fill="#515151"
     r="12.453727"
     cy="43.928459"
     cx="46.396332" />
  <circle
     style="stroke-width:0.70071"
     id="circle16"
     fill="#bfbfbf"
     r="11.804169"
     cy="43.928459"
     cx="46.396332" />
  <g
     id="g24"
     fill="#aaaaaa"
     transform="matrix(0.1082941,0,0,0.1082941,1.2960518,31.425697)">
    <circle
       id="circle18"
       r="12"
       cy="98.449997"
       cx="334.46201" />
    <circle
       id="circle20"
       r="28.5"
       cy="59.950001"
       cx="387.96201" />
    <circle
       id="circle22"
       r="20.5"
       cy="130.95"
       cx="375.96201" />
  </g>
  <circle
     style="stroke-width:0.70071"
     id="circle26"
     fill="#515151"
     r="2.2198508"
     cy="62.338226"
     cx="17.96921" />
  <circle
     style="stroke-width:0.70071"
     id="circle28"
     fill="#bfbfbf"
     r="2.057286"
     cy="62.338226"
     cx="17.96921" />
  <g
     id="g36"
     fill="#aaaaaa"
     transform="matrix(0.1082941,0,0,0.1082941,1.2960518,31.425697)">
    <circle
       id="circle30"
       r="2.1500001"
       cy="282.44501"
       cx="139.47" />
    <circle
       id="circle32"
       r="5.0500002"
       cy="275.78101"
       cx="149.008" />
    <circle
       id="circle34"
       r="3.5999999"
       cy="288.323"
       cx="146.65601" />
  </g>
  <g
     transform="matrix(0.70071044,0,0,0.70071044,1.2418504,31.479638)"
     id="g42"
     stroke-width="0.155">
    <path
       id="path38"
       stroke="#000000"
       fill="#ffff00"
       d="M 3.543,47.038 H 0.077 v -5.786 h 1.31 v 4.73 h 2.155 z m 2.098,0 H 4.33 v -5.786 h 1.31 z m 6.095,-0.387 q -0.852,0.488 -2.118,0.488 -1.404,0 -2.216,-0.77 -0.808,-0.775 -0.808,-2.13 0,-1.364 0.885,-2.223 0.885,-0.86 2.354,-0.86 0.925,0 1.63,0.254 v 1.22 q -0.674,-0.387 -1.647,-0.387 -0.816,0 -1.33,0.53 -0.5,0.525 -0.5,1.404 0,0.892 0.46,1.38 0.463,0.488 1.246,0.488 0.47,0 0.747,-0.133 V 44.784 H 9.26 v -1.04 h 2.476 z m 6.25,0.387 h -1.428 l -0.414,-1.287 h -2.07 l -0.4,1.287 h -1.422 l 2.118,-5.786 h 1.554 z M 15.843,44.75 15.218,42.805 q -0.07,-0.216 -0.097,-0.52 h -0.03 q -0.02,0.254 -0.102,0.504 l -0.633,1.963 z" />
    <path
       id="path40"
       stroke="#515151"
       fill="#aaaaaa"
       d="m 63.776,47.044 v -5.786 h 2.062 q 3.1,0 3.1,2.82 0,1.352 -0.848,2.16 -0.844,0.807 -2.252,0.807 z m 1.31,-4.725 v 3.668 h 0.65 q 0.852,0 1.335,-0.5 0.487,-0.5 0.487,-1.384 0,-0.827 -0.483,-1.3 -0.48,-0.476 -1.347,-0.476 z m 8.315,4.725 h -3.5 v -5.786 h 3.356 v 1.06 h -2.045 v 1.287 h 1.903 v 1.057 h -1.903 v 1.324 h 2.18 z" />
  </g>
  <g
     id="g56"
     stroke="#000000"
     fill="#ff1919"
     transform="matrix(0.1082941,0,0,0.1082941,1.2960518,31.425697)">
    <path
       id="path44"
       d="m 528.5,304.835 h -9.243 l -2.678,-8.33 h -13.392 l -2.652,8.33 h -9.2 l 13.707,-37.44 H 515.1 Z m -13.865,-14.804 -4.044,-12.585 q -0.446,-1.4 -0.63,-3.368 h -0.2 q -0.13,1.645 -0.656,3.264 L 505,290.03 Z m 16.833,13.37 v -8.355 q 2.284,1.906 4.963,2.872 2.678,0.94 5.4,0.94 1.602,0 2.783,-0.287 1.208,-0.287 1.996,-0.783 0.814,-0.522 1.208,-1.2 0.394,-0.705 0.394,-1.514 0,-1.097 -0.63,-1.958 -0.63,-0.862 -1.733,-1.593 -1.077,-0.73 -2.573,-1.4 -1.497,-0.68 -3.23,-1.384 -4.4,-1.828 -6.6,-4.465 -2.153,-2.637 -2.153,-6.37 0,-2.924 1.182,-5.013 1.182,-2.115 3.204,-3.473 2.048,-1.358 4.727,-1.984 2.678,-0.653 5.672,-0.653 2.94,0 5.2,0.366 2.284,0.34 4.2,1.07 V 276 q -0.945,-0.653 -2.074,-1.15 -1.103,-0.496 -2.284,-0.8 -1.182,-0.34 -2.363,-0.496 -1.155,-0.157 -2.206,-0.157 -1.444,0 -2.626,0.287 -1.182,0.26 -1.996,0.757 -0.814,0.496 -1.26,1.2 -0.446,0.68 -0.446,1.54 0,0.94 0.5,1.697 0.5,0.73 1.418,1.4 0.92,0.653 2.232,1.305 1.313,0.627 2.967,1.305 2.258,0.94 4.044,2 1.812,1.044 3.1,2.376 1.287,1.332 1.97,3.055 0.683,1.697 0.683,3.97 0,3.133 -1.208,5.274 -1.182,2.115 -3.23,3.446 -2.048,1.305 -4.78,1.88 -2.705,0.574 -5.724,0.574 -3.1,0 -5.908,-0.522 -2.783,-0.522 -4.832,-1.567 z m 58.322,-29.14 h -10.74 v 30.575 h -8.508 V 274.26 h -10.687 v -6.867 H 589.8 Z m 36.655,30.575 h -9.742 l -5.856,-9.635 q -0.656,-1.097 -1.26,-1.958 -0.604,-0.862 -1.234,-1.462 -0.604,-0.627 -1.287,-0.94 -0.656,-0.34 -1.444,-0.34 h -2.284 v 14.334 h -8.482 v -37.44 H 608.3 q 13.707,0 13.707,10.183 0,1.958 -0.604,3.63 -0.604,1.645 -1.707,2.977 -1.103,1.332 -2.678,2.298 -1.55,0.966 -3.466,1.514 v 0.104 q 0.84,0.26 1.628,0.862 0.788,0.574 1.523,1.358 0.735,0.783 1.392,1.697 0.683,0.888 1.234,1.75 z m -23.108,-31.123 v 10.418 h 3.676 q 2.73,0 4.385,-1.567 1.68,-1.593 1.68,-3.943 0,-4.9 -5.908,-4.9 z" />
    <use
       height="100%"
       width="100%"
       y="0"
       x="0"
       id="use46"
       xlink:href="#B" />
    <path
       id="path48"
       d="m 704.03,304.835 h -8.56 L 679.95,281.3 q -1.365,-2.063 -1.9,-3.107 h -0.105 q 0.2,1.984 0.2,6.057 v 20.575 h -8 v -37.44 h 9.138 l 14.94,22.794 q 1.024,1.54 1.9,3.055 h 0.105 q -0.2,-1.305 -0.2,-5.144 v -20.705 h 8 z" />
    <use
       height="100%"
       width="100%"
       y="0"
       id="use50"
       x="83.292"
       xlink:href="#B" />
    <use
       height="100%"
       width="100%"
       id="use52"
       y="-0.033"
       x="529.02698"
       xlink:href="#A" />
    <path
       id="path54"
       d="m 813.396,304.835 h -8.482 v -37.44 h 8.482 z m 41.646,0 H 845.8 l -2.678,-8.33 H 829.73 l -2.652,8.33 h -9.2 l 13.707,-37.44 h 10.057 z m -13.865,-14.804 -4.044,-12.585 q -0.446,-1.4 -0.63,-3.368 h -0.2 q -0.13,1.645 -0.656,3.264 l -4.096,12.7 z" />
  </g>
  <defs
     id="defs60">
    <path
       d="m 267.328,304.868 h -8.376 v -22.402 q 0,-3.63 0.315,-8.016 h -0.2 q -0.656,3.446 -1.182,4.96 l -8.823,25.457 h -6.932 l -8.98,-25.196 q -0.368,-1.018 -1.182,-5.222 h -0.236 q 0.34,5.535 0.34,9.713 v 20.705 h -7.64 v -37.44 h 12.42 l 7.694,22.193 q 0.92,2.663 1.34,5.353 h 0.158 q 0.7,-3.107 1.497,-5.405 l 7.694,-22.14 h 12.105 z"
       id="A" />
    <path
       d="m 645.315,305.488 q -8.088,0 -13.182,-5.222 -5.094,-5.248 -5.094,-13.655 0,-8.877 5.173,-14.36 5.173,-5.483 13.707,-5.483 8.06,0 13.024,5.248 5,5.248 5,13.838 0,8.825 -5.173,14.23 -5.147,5.405 -13.444,5.405 z m 0.368,-31.462 q -4.464,0 -7.1,3.342 -2.626,3.316 -2.626,8.8 0,5.56 2.626,8.8 2.626,3.238 6.88,3.238 4.385,0 6.96,-3.133 2.573,-3.16 2.573,-8.747 0,-5.822 -2.495,-9.06 -2.495,-3.238 -6.827,-3.238 z"
       id="B" />
  </defs>
</svg>
